<?xml version="1.0" encoding="UTF-8" standalone="no"?>
<!-- Created with Digital by H.Neemann -->
<!-- created: Sun Sep 06 15:36:56 CEST 2026 -->

<svg
   xmlns:svg="http://www.w3.org/2000/svg"
   xmlns="http://www.w3.org/2000/svg"
   width="165.9mm"
   height="43.35mm"
   viewBox="-12 223 1106 289">
<g stroke-linecap="square">
<path d="M 120,240 L 200,240 L 200,280 L 280,280" stroke="#0000ff" stroke-width="4.0" fill="none"/>
<path d="M 120,320 L 280,320" stroke="#0000ff" stroke-width="4.0" fill="none"/>
<path d="M 620,320 L 740,320" stroke="#0000ff" stroke-width="4.0" fill="none"/>
<path d="M 780,320 L 840,320" stroke="#0000ff" stroke-width="4.0" fill="none"/>
<path d="M 120,400 L 440,400 L 440,340 L 520,340" stroke="#0000ff" stroke-width="4.0" fill="none"/>
<path d="M 120,480 L 480,480 L 480,460 L 520,460" stroke="#0000ff" stroke-width="4.0" fill="none"/>
<path d="M 780,480 L 840,480" stroke="#0000ff" stroke-width="4.0" fill="none"/>
<path d="M 620,480 L 740,480" stroke="#0000ff" stroke-width="4.0" fill="none"/>
<path d="M 480,480 L 480,500 L 520,500" stroke="#0000ff" stroke-width="4.0" fill="none"/>
<path d="M 380,300 L 520,300" stroke="#0000ff" stroke-width="4.0" fill="none"/>
<g>
<circle cx="480.0" cy="480.0" r="4.0" stroke="#0000ff" stroke-width="4.0" fill="#0000ff" />
</g>
<g>
<path d="M 89,225 L 119,225 L 119,255 L 89,255 Z" stroke="#000000" stroke-width="4.0" fill="none"/>
<text text-anchor="end" x="75.0" y="249.0" fill="#000000" style="font-size:24px"><tspan style="font-style:italic;">CLOCK</tspan></text>
<path d="M 95,245 L 100,245 L 100,235 L 105,235 L 105,245 L 110,245 L 110,235 L 115,235" stroke="#000000" stroke-width="2.0" fill="none"/>
<circle cx="120.0" cy="240.0" r="2.0" stroke="#faa500" stroke-width="4.0" fill="#faa500" />
</g>
<g>
<path d="M 89,465 L 119,465 L 119,495 L 89,495 Z" stroke="#000000" stroke-width="4.0" fill="none"/>
<circle cx="104.0" cy="480.0" r="9.0" stroke="#000000" stroke-width="4.0" fill="none" />
<text text-anchor="end" x="75.0" y="489.0" fill="#000000" style="font-size:24px"><tspan style="font-style:italic;">RED</tspan></text>
<circle cx="120.0" cy="480.0" r="2.0" stroke="#faa500" stroke-width="4.0" fill="#faa500" />
</g>
<g>
<circle cx="856.0" cy="320.0" r="15.0" stroke="#000000" stroke-width="4.0" fill="#000000" />
<circle cx="856.0" cy="320.0" r="13.0" stroke="#00cc00" stroke-width="0.0" fill="#00cc00" />
<text text-anchor="start" x="885.0" y="329.0" fill="#000000" style="font-size:24px">TESTING / GOOD</text>
<circle cx="840.0" cy="320.0" r="2.0" stroke="#0000ff" stroke-width="4.0" fill="#0000ff" />
</g>
<g>
<circle cx="856.0" cy="480.0" r="15.0" stroke="#000000" stroke-width="4.0" fill="#000000" />
<circle cx="856.0" cy="480.0" r="13.0" stroke="#ff0000" stroke-width="0.0" fill="#ff0000" />
<text text-anchor="start" x="885.0" y="489.0" fill="#000000" style="font-size:24px">ERROR</text>
<circle cx="840.0" cy="480.0" r="2.0" stroke="#0000ff" stroke-width="4.0" fill="#0000ff" />
</g>
<g>
<path d="M 89,305 L 119,305 L 119,335 L 89,335 Z" stroke="#000000" stroke-width="4.0" fill="none"/>
<circle cx="104.0" cy="320.0" r="9.0" stroke="#000000" stroke-width="4.0" fill="none" />
<text text-anchor="end" x="75.0" y="329.0" fill="#000000" style="font-size:24px"><tspan style="font-style:italic;">BLINK</tspan></text>
<circle cx="120.0" cy="320.0" r="2.0" stroke="#faa500" stroke-width="4.0" fill="#faa500" />
</g>
<g>
<path d="M 89,385 L 119,385 L 119,415 L 89,415 Z" stroke="#000000" stroke-width="4.0" fill="none"/>
<circle cx="104.0" cy="400.0" r="9.0" stroke="#000000" stroke-width="4.0" fill="none" />
<text text-anchor="end" x="75.0" y="409.0" fill="#000000" style="font-size:24px"><tspan style="font-style:italic;">GREEN</tspan></text>
<circle cx="120.0" cy="400.0" r="2.0" stroke="#faa500" stroke-width="4.0" fill="#faa500" />
</g>
<g>
<path d="M 330,330 L 281,330 L 281,270 L 330,270 C 340,270 360,280 359,300 C 359,320 340,330 330,330 Z" stroke="#000000" stroke-width="4.0" fill="none"/>
<circle cx="370.0" cy="300.0" r="9.0" stroke="#000000" stroke-width="4.0" fill="none" />
<circle cx="280.0" cy="280.0" r="2.0" stroke="#0000ff" stroke-width="4.0" fill="#0000ff" />
<circle cx="280.0" cy="320.0" r="2.0" stroke="#0000ff" stroke-width="4.0" fill="#0000ff" />
<circle cx="380.0" cy="300.0" r="2.0" stroke="#faa500" stroke-width="4.0" fill="#faa500" />
</g>
<g>
<path d="M 570,350 L 521,350 L 521,290 L 570,290 C 580,290 600,300 599,320 C 599,340 580,350 570,350 Z" stroke="#000000" stroke-width="4.0" fill="none"/>
<circle cx="610.0" cy="320.0" r="9.0" stroke="#000000" stroke-width="4.0" fill="none" />
<circle cx="520.0" cy="300.0" r="2.0" stroke="#0000ff" stroke-width="4.0" fill="#0000ff" />
<circle cx="520.0" cy="340.0" r="2.0" stroke="#0000ff" stroke-width="4.0" fill="#0000ff" />
<circle cx="620.0" cy="320.0" r="2.0" stroke="#faa500" stroke-width="4.0" fill="#faa500" />
</g>
<g>
<path d="M 570,510 L 521,510 L 521,450 L 570,450 C 580,450 600,460 599,480 C 599,500 580,510 570,510 Z" stroke="#000000" stroke-width="4.0" fill="none"/>
<circle cx="610.0" cy="480.0" r="9.0" stroke="#000000" stroke-width="4.0" fill="none" />
<circle cx="520.0" cy="460.0" r="2.0" stroke="#0000ff" stroke-width="4.0" fill="#0000ff" />
<circle cx="520.0" cy="500.0" r="2.0" stroke="#0000ff" stroke-width="4.0" fill="#0000ff" />
<circle cx="620.0" cy="480.0" r="2.0" stroke="#faa500" stroke-width="4.0" fill="#faa500" />
</g>
<g>
<path d="M 741,308 L 759,320 L 741,332 Z" stroke="#000000" stroke-width="4.0" fill="none"/>
<circle cx="770.0" cy="320.0" r="9.0" stroke="#000000" stroke-width="4.0" fill="none" />
<circle cx="740.0" cy="320.0" r="2.0" stroke="#0000ff" stroke-width="4.0" fill="#0000ff" />
<circle cx="780.0" cy="320.0" r="2.0" stroke="#faa500" stroke-width="4.0" fill="#faa500" />
</g>
<g>
<text text-anchor="start" x="400.0" y="290.5" fill="#000000" style="font-size:14px">BLINK_CLOCK</text>
</g>
<g>
<path d="M 741,468 L 759,480 L 741,492 Z" stroke="#000000" stroke-width="4.0" fill="none"/>
<circle cx="770.0" cy="480.0" r="9.0" stroke="#000000" stroke-width="4.0" fill="none" />
<circle cx="740.0" cy="480.0" r="2.0" stroke="#0000ff" stroke-width="4.0" fill="#0000ff" />
<circle cx="780.0" cy="480.0" r="2.0" stroke="#faa500" stroke-width="4.0" fill="#faa500" />
</g>
</g>
</svg>